# xmcd
#
# Track frame offsets:
#   150
#   11442
#   22902
#   33277
#   42382
#   54250
#   70860
#   81422
#   91977
#   103625
#   116317
#   141695
#   156720
#   167597
#   179452
#   192965
#   204317
#   219772
#   245270
#   270185
#   291045
#
# Disc length: 4201 seconds
#
# Revision: 0
# Processed by: cddbd v1.5PL3 Copyright (c) Steve Scherf et al.
# Submitted via: Media_Universe 3.0
#
DISCID=1b106715
DTITLE=The Yardbirds - Shapes Of Things - Disc 3/4
DYEAR=1991
DGENRE=R and B
TTITLE0=For Your Love
TTITLE1=I'm Not Talking
TTITLE2=Putty (In Your Hands)
TTITLE3=I Ain't Got You
TTITLE4=Got To Hurry
TTITLE5=I Ain't Done Wrong
TTITLE6=I Wishj You Would
TTITLE7=A Certain Girl
TTITLE8=Sweet Music
TTITLE9=Good Morning Schoolgirl
TTITLE10=My Girl Sloopy
TTITLE11=You're A Better Man Than I
TTITLE12=Evil Hearted You
TTITLE13=I'm A Man
TTITLE14=Still I'm Sad
TTITLE15=Heart Full Of Soul
TTITLE16=The Train Kept A Rolling
TTITLE17=Smokestack Lightning
TTITLE18=Respectable
TTITLE19=I'm A Man
TTITLE20=Here 'THis
EXTD=
EXTT0=
EXTT1=
EXTT2=
EXTT3=
EXTT4=
EXTT5=
EXTT6=
EXTT7=
EXTT8=
EXTT9=
EXTT10=
EXTT11=
EXTT12=
EXTT13=
EXTT14=
EXTT15=
EXTT16=
EXTT17=
EXTT18=
EXTT19=
EXTT20=
PLAYORDER=
